PathFileType	4	(X/Y/Z)	OpenSim_Sub10_EMGStiffKnee_Magnet.trc
DataRate	CameraRate	NumFrames	NumMarkers	Units	OrigDataRate	OrigDataStartFrame	OrigNumFrames
100	100	30	8	m	100	1047	8371
Frame#	Time	torso_imu_offset_imu	pelvis_imu_offset_imu	tibia_r_imu_offset_imu	femur_r_imu_offset_imu	tibia_l_imu_offset_imu	femur_l_imu_offset_imu	toes_r_imu_offset_imu	toes_l_imu_offset_imu
				X1	Y1	Z1	X2	Y2	Z2	X3	Y3	Z3	X4	Y4	Z4	X5	Y5	Z5	X6	Y6	Z6	X7	Y7	Z7	X8		Y8	Z8	

1047	10.46000000	-0.93725600	-0.06567400	0.16845700	-0.58374000	-0.01733400	-0.75561500	-0.68042000	-0.59960900	-0.08252000	-0.70263700	-0.45629900	0.05127000	-0.44799800	0.68750000	0.11816400	-0.77832000	0.20849600	0.28002900	-0.62988300	-0.29614300	-0.35327100	-0.80200200	-0.01269500	-0.22924800
1048	10.47000000	-0.93505900	-0.06127900	0.17041000	-0.58764600	-0.02368200	-0.76245100	-0.67578100	-0.61401400	-0.08642600	-0.70263700	-0.45629900	0.05127000	-0.46997100	0.66992200	0.11694300	-0.78247100	0.20410200	0.27563500	-0.62768600	-0.29614300	-0.35937500	-0.79492200	-0.02124000	-0.25390600
1049	10.48000000	-0.93530300	-0.05932600	0.17480500	-0.58129900	-0.02148400	-0.76489300	-0.67578100	-0.61401400	-0.07983400	-0.69604500	-0.46460000	0.05151400	-0.48730500	0.65454100	0.11792000	-0.78002900	0.19555700	0.27343800	-0.62353500	-0.29614300	-0.35522500	-0.78588900	-0.02099600	-0.26977500
1050	10.49000000	-0.93750000	-0.05297900	0.17016600	-0.57690400	-0.02978500	-0.77148400	-0.67138700	-0.61401400	-0.08422900	-0.69165000	-0.47070300	0.05175800	-0.51611300	0.64111300	0.11450200	-0.79077100	0.19116200	0.26684600	-0.62548800	-0.29809600	-0.35742200	-0.77661100	-0.02954100	-0.28540000
1051	10.50000000	-0.93554700	-0.05297900	0.17456100	-0.57470700	-0.02978500	-0.76220700	-0.66699200	-0.62231400	-0.09521500	-0.69360400	-0.47290000	0.05664100	-0.53759800	0.61694300	0.11816400	-0.79272500	0.18237300	0.26709000	-0.62353500	-0.29809600	-0.36157200	-0.76293900	-0.04028300	-0.31689500
1052	10.51000000	-0.93554700	-0.04663100	0.18090800	-0.57031200	-0.03393600	-0.76660200	-0.66503900	-0.62231400	-0.08837900	-0.67871100	-0.48510700	0.05932600	-0.55493200	0.59716800	0.11718800	-0.78808600	0.17578100	0.26245100	-0.61938500	-0.30004900	-0.36352500	-0.76025400	-0.04907200	-0.33252000
1053	10.52000000	-0.93994100	-0.04443400	0.17846700	-0.57006800	-0.04028300	-0.77343800	-0.66040000	-0.63501000	-0.09033200	-0.67651400	-0.48730500	0.06176800	-0.57470700	0.57959000	0.11377000	-0.79687500	0.17358400	0.25805700	-0.61718800	-0.30419900	-0.36962900	-0.74194300	-0.06201200	-0.35498000
1054	10.53000000	-0.93359400	-0.04028300	0.18286100	-0.56591800	-0.03808600	-0.77343800	-0.65625000	-0.63085900	-0.09252900	-0.67016600	-0.48925800	0.06860400	-0.60058600	0.55322300	0.11108400	-0.79663100	0.16699200	0.26049800	-0.61279300	-0.30615200	-0.36767600	-0.73266600	-0.06835900	-0.37500000
1055	10.54000000	-0.93383800	-0.03588900	0.18701200	-0.56787100	-0.04028300	-0.77563500	-0.65600600	-0.63501000	-0.09912100	-0.66772500	-0.50170900	0.06689500	-0.62231400	0.52905300	0.10791000	-0.79858400	0.15625000	0.25146500	-0.61084000	-0.30810500	-0.37158200	-0.72534200	-0.08374000	-0.39306600
1056	10.55000000	-0.93408200	-0.02954100	0.19555700	-0.56347700	-0.04663100	-0.77539100	-0.65576200	-0.64331100	-0.09887700	-0.66137700	-0.50366200	0.08081100	-0.64404300	0.50683600	0.11377000	-0.79858400	0.15625000	0.25146500	-0.60864300	-0.31201200	-0.37573200	-0.71362300	-0.09668000	-0.41088900
1057	10.56000000	-0.93212900	-0.02319300	0.19531200	-0.56103500	-0.05493200	-0.77270500	-0.64965800	-0.64111300	-0.09448200	-0.65502900	-0.51001000	0.08105500	-0.65893600	0.47827100	0.11328100	-0.80053700	0.15405300	0.25146500	-0.60839800	-0.31811500	-0.37988300	-0.69751000	-0.10961900	-0.42651400
1058	10.57000000	-0.93408200	-0.02758800	0.18896500	-0.55908200	-0.04638700	-0.77319300	-0.64331100	-0.64331100	-0.10546900	-0.65698200	-0.51196300	0.08105500	-0.67358400	0.44970700	0.11474600	-0.80493200	0.14965800	0.24926800	-0.60205100	-0.32421900	-0.38378900	-0.68798800	-0.12500000	-0.44677700
1059	10.58000000	-0.92773400	-0.02319300	0.19970700	-0.55664100	-0.05493200	-0.77514600	-0.64306600	-0.65161100	-0.10522500	-0.65234400	-0.52441400	0.07690400	-0.68652300	0.42993200	0.11377000	-0.80029300	0.14526400	0.25390600	-0.60180700	-0.32617200	-0.39209000	-0.67187500	-0.13574200	-0.46679700
1060	10.59000000	-0.93017600	-0.01904300	0.20190400	-0.55444300	-0.05908200	-0.77734400	-0.64306600	-0.64941400	-0.10546900	-0.64184600	-0.53051800	0.08178700	-0.70825200	0.40795900	0.11279300	-0.80468800	0.14086900	0.25170900	-0.59936500	-0.34033200	-0.39599600	-0.65820300	-0.14648400	-0.48242200
1061	10.60000000	-0.92382800	-0.01269500	0.20166000	-0.55664100	-0.05688500	-0.77978500	-0.64086900	-0.65356400	-0.10961900	-0.63745100	-0.53247100	0.08422900	-0.71630900	0.37500000	0.11010700	-0.80664100	0.13867200	0.25390600	-0.60156200	-0.34057600	-0.40039100	-0.64453100	-0.14843800	-0.50048800
1062	10.61000000	-0.92797900	-0.01489300	0.19726600	-0.55444300	-0.05493200	-0.77978500	-0.63037100	-0.65576200	-0.10961900	-0.63305700	-0.54077100	0.08227500	-0.73144500	0.35742200	0.10888700	-0.80200200	0.13012700	0.25415000	-0.59716800	-0.34643600	-0.40429700	-0.63085900	-0.15918000	-0.50927700
1063	10.62000000	-0.92602500	-0.01269500	0.20385700	-0.55444300	-0.06103500	-0.77734400	-0.63012700	-0.65991200	-0.11157200	-0.63305700	-0.54296900	0.07763700	-0.73730500	0.33105500	0.10131800	-0.80835000	0.12353500	0.24511700	-0.59887700	-0.36084000	-0.41040000	-0.61279300	-0.16137700	-0.52270500
1064	10.63000000	-0.92627000	-0.00854500	0.20361300	-0.55004900	-0.05688500	-0.78198200	-0.62353500	-0.66601600	-0.11596700	-0.63281200	-0.54907200	0.08032200	-0.74560500	0.30908200	0.09814500	-0.80615200	0.12573200	0.24951200	-0.59863300	-0.36694300	-0.41015600	-0.60571300	-0.16992200	-0.54296900
1065	10.64000000	-0.93042000	-0.00854500	0.20581100	-0.54565400	-0.06518600	-0.77929700	-0.61718800	-0.67041000	-0.11792000	-0.62426800	-0.55322300	0.07128900	-0.75854500	0.28930700	0.09033200	-0.81054700	0.11914100	0.24755900	-0.59643600	-0.37304700	-0.41845700	-0.58764600	-0.17627000	-0.55200200
1066	10.65000000	-0.93261700	-0.00854500	0.20800800	-0.54126000	-0.06518600	-0.78393600	-0.61254900	-0.68066400	-0.11767600	-0.62426800	-0.55517600	0.07373000	-0.76001000	0.26928700	0.09790000	-0.80395500	0.11914100	0.24511700	-0.60058600	-0.37915000	-0.42041000	-0.58081100	-0.17846700	-0.55859400
1067	10.66000000	-0.93066400	-0.00415000	0.20336900	-0.54809600	-0.05688500	-0.78442400	-0.61230500	-0.68701200	-0.11962900	-0.61596700	-0.55297900	0.06665000	-0.76635700	0.25170900	0.09228500	-0.80810500	0.11694300	0.24755900	-0.59790000	-0.39331100	-0.42431600	-0.56958000	-0.18042000	-0.57421900
1068	10.67000000	-0.93261700	-0.00439500	0.20996100	-0.54809600	-0.05688500	-0.77734400	-0.60376000	-0.69531200	-0.13061500	-0.61572300	-0.56543000	0.06713900	-0.77246100	0.23413100	0.09545900	-0.80786100	0.11059600	0.23852500	-0.60424800	-0.39746100	-0.42846700	-0.56250000	-0.18701200	-0.57421900
1069	10.68000000	-0.92846700	0.00000000	0.20776400	-0.54809600	-0.05688500	-0.78198200	-0.59326200	-0.69311500	-0.13281200	-0.61572300	-0.56347700	0.05810500	-0.77465800	0.22973600	0.09570300	-0.80346700	0.11059600	0.24536100	-0.61035200	-0.39965800	-0.43066400	-0.55590800	-0.18261700	-0.57202100
1070	10.69000000	-0.92187500	-0.00634800	0.21679700	-0.54809600	-0.05468800	-0.77978500	-0.58691400	-0.69946300	-0.13476600	-0.61352500	-0.56543000	0.05566400	-0.77880900	0.21875000	0.08496100	-0.80786100	0.11059600	0.25439500	-0.60791000	-0.40966800	-0.43261700	-0.54907200	-0.18676800	-0.58105500
1071	10.70000000	-0.92407200	-0.00854500	0.21020500	-0.55468800	-0.04858400	-0.77539100	-0.58252000	-0.70361300	-0.14599600	-0.61132800	-0.56958000	0.05590800	-0.77636700	0.21435500	0.08740200	-0.80346700	0.10620100	0.24975600	-0.61181600	-0.41992200	-0.43017600	-0.54687500	-0.18676800	-0.59008800
1072	10.71000000	-0.92382800	-0.01269500	0.22143600	-0.55249000	-0.04858400	-0.77075200	-0.57592800	-0.70971700	-0.14575200	-0.60913100	-0.56958000	0.05371100	-0.77417000	0.21655300	0.08960000	-0.80542000	0.10180700	0.24975600	-0.61792000	-0.42822300	-0.43017600	-0.54028300	-0.18237300	-0.58764600
1073	10.72000000	-0.92187500	-0.01049800	0.21704100	-0.55273400	-0.04638700	-0.76611300	-0.56347700	-0.71191400	-0.15014600	-0.60449200	-0.58203100	0.04956100	-0.77417000	0.21655300	0.09619100	-0.80517600	0.09326200	0.25439500	-0.61987300	-0.43652300	-0.43212900	-0.53833000	-0.18017600	-0.59448200
1074	10.73000000	-0.92382800	-0.01269500	0.21264600	-0.55712900	-0.04028300	-0.76635700	-0.55908200	-0.71801800	-0.15649400	-0.60253900	-0.57788100	0.04711900	-0.77880900	0.21875000	0.09619100	-0.80493200	0.08886700	0.25000000	-0.62377900	-0.44067400	-0.42797900	-0.55175800	-0.17797900	-0.58325200
1075	10.74000000	-0.91943400	-0.01464800	0.21264600	-0.56152300	-0.03808600	-0.76635700	-0.54638700	-0.72216800	-0.16748000	-0.60253900	-0.57983400	0.04272500	-0.77197300	0.21875000	0.10058600	-0.79589800	0.08252000	0.25903300	-0.62963900	-0.45507800	-0.42358400	-0.55590800	-0.18701200	-0.58105500
1076	10.75000000	-0.92358400	-0.01904300	0.21728500	-0.56372100	-0.03393600	-0.76660200	-0.53955100	-0.73486300	-0.17602500	-0.60449200	-0.58398400	0.03808600	-0.76562500	0.22753900	0.10229500	-0.80249000	0.07592800	0.25683600	-0.63159200	-0.46313500	-0.42334000	-0.55810500	-0.18701200	-0.56762700
